Coordinates
version=1
nRows=10
nColumns=63
inDegrees=yes

Units are S.I. units (second, meters, Newtons, ...)
If the header above contains a line with 'inDegrees', this indicates whether rotational values are in degrees (yes) or radians (no).

endheader
time	pelvis_tilt	pelvis_list	pelvis_rotation	pelvis_tx	pelvis_ty	pelvis_tz	hip_flexion_r	hip_adduction_r	hip_rotation_r	knee_angle_r	knee_angle_r_beta	ankle_angle_r	subtalar_angle_r	mtp_angle_r	hip_flexion_l	hip_adduction_l	hip_rotation_l	knee_angle_l	knee_angle_l_beta	ankle_angle_l	subtalar_angle_l	mtp_angle_l	L5_S1_Flex_Ext	L5_S1_Lat_Bending	L5_S1_axial_rotation	L4_L5_Flex_Ext	L4_L5_Lat_Bending	L4_L5_axial_rotation	L3_L4_Flex_Ext	L3_L4_Lat_Bending	L3_L4_axial_rotation	L2_L3_Flex_Ext	L2_L3_Lat_Bending	L2_L3_axial_rotation	L1_L2_Flex_Ext	L1_L2_Lat_Bending	L1_L2_axial_rotation	L1_T12_Flex_Ext	L1_T12_Lat_Bending	L1_T12_axial_rotation	Abs_r3	Abs_r2	Abs_r1	Abs_t1	Abs_t2	neck_flexion	neck_bending	neck_rotation	arm_flex_r	arm_add_r	arm_rot_r	elbow_flex_r	pro_sup_r	wrist_flex_r	wrist_dev_r	arm_flex_l	arm_add_l	arm_rot_l	elbow_flex_l	pro_sup_l	wrist_flex_l	wrist_dev_l
      0.00000000	     -3.35414161	     -3.68530868	     97.63839704	      0.07896535	      0.56560411	      0.79510639	      4.47010018	      1.39505676	     -9.96412712	     12.15144232	      0.21208268	     26.17040366	      2.63168581	      0.00000000	      2.58096130	      0.09118831	     -8.60965264	      9.54978648	      0.16667522	     24.24857933	      5.39233742	      0.00000000	      0.34997122	      0.19467498	     -1.15323183	      0.64993155	      0.25891773	     -1.22530882	      0.57496771	      0.47333276	     -1.22530882	      0.39998210	      0.47333276	     -1.00907785	      0.32498327	      0.39698123	     -0.93700086	      0.19997355	      0.30155155	     -0.86492387	      2.49980940	      2.20220236	     -6.41392947	      0.00000000	      0.00000000	     28.16529090	      7.87523273	     21.32433687	     14.00433314	    -21.93986897	     69.45858498	     72.19344160	     89.09162090	      8.00513118	     -0.30861127	      3.11932412	    -22.81761053	     53.56621782	     76.26068695	     87.41586669	     14.73025606	     12.15190565
      0.02083333	     -3.15115221	     -3.83913615	     97.25264062	      0.07927368	      0.56477096	      0.79505095	      4.67502751	      1.53725140	    -10.16285204	     12.15475143	      0.21214043	     26.24535415	      3.52911903	      0.00000000	      2.60754736	     -0.03707872	     -8.84745464	      9.25441484	      0.16152001	     24.56830035	      5.24031409	      0.00000000	      0.38028977	      0.21574320	     -1.16743985	      0.70623613	      0.28693845	     -1.24040484	      0.62477806	      0.52455801	     -1.24040484	      0.43463317	      0.52455801	     -1.02150987	      0.35313708	      0.43994353	     -0.94854488	      0.21729757	      0.33418621	     -0.87557989	      2.71637177	      2.44053020	     -6.49295020	      0.00000000	      0.00000000	     28.21147349	      6.97261151	     19.41806499	     12.63741887	    -21.84153318	     68.46855716	     72.05335261	     89.03007894	      9.23775734	     -0.93257519	      1.23757857	    -22.93726623	     52.92658205	     76.57966760	     86.87350308	      7.70567907	      8.16497355
      0.04166667	     -2.97522021	     -3.82761550	     97.03306706	      0.07955359	      0.56428851	      0.79489019	      4.64309999	      1.69583106	    -10.54103461	     12.07318159	      0.21071677	     26.13471131	      4.18946652	      0.00000000	      2.47590793	     -0.18374143	     -9.00360852	      9.01650913	      0.15736777	     24.62850247	      5.01709976	      0.00000000	      0.38190941	      0.23565206	     -1.15803152	      0.70924396	      0.31341723	     -1.23040849	      0.62743896	      0.57296441	     -1.23040849	      0.43648426	      0.57296441	     -1.01327758	      0.35464108	      0.48054167	     -0.94090061	      0.21822304	      0.36502503	     -0.86852364	      2.72794070	      2.66574318	     -6.44062390	      0.00000000	      0.00000000	     28.23640082	      6.71952518	     18.65492075	     11.56141709	    -21.71679841	     67.53878166	     71.80822818	     88.97614004	     10.32758478	     -1.27575741	      0.07047042	    -23.01771727	     53.09197861	     76.74370666	     85.44720102	      1.27587107	      5.02069301
      0.06250000	     -2.87067234	     -3.83647219	     96.88061566	      0.07983084	      0.56388343	      0.79459680	      4.61543808	      1.81756098	    -10.59215706	     11.99972604	      0.20943473	     25.91874288	      4.28939544	      0.00000000	      2.38981738	     -0.27481496	     -9.10186458	      8.88139102	      0.15500952	     24.57094380	      4.66344721	      0.00000000	      0.38840962	      0.24643169	     -1.16140971	      0.72131550	      0.32775415	     -1.23399781	      0.63811816	      0.59917402	     -1.23399781	      0.44391335	      0.59917402	     -1.01623349	      0.36067717	      0.50252351	     -0.94364539	      0.22193726	      0.38172269	     -0.87105728	      2.77437107	      2.78768460	     -6.45941236	      0.00000000	      0.00000000	     28.24735874	      6.67614515	     18.36766968	     11.06764117	    -21.48974317	     67.29954706	     71.31698131	     88.89846654	     11.13431983	     -1.83075828	     -1.23000947	    -22.86123965	     52.23611335	     76.88809999	     84.30492552	     -2.06367902	      3.68110397
      0.08333333	     -2.77615920	     -3.82639471	     96.80845083	      0.08015004	      0.56361097	      0.79402990	      4.52409228	      1.95725364	    -10.60873057	     11.87737743	      0.20729934	     25.65812465	      4.19091657	      0.00000000	      2.30377611	     -0.39017563	     -9.27234697	      8.82854894	      0.15408725	     24.42321857	      4.40396135	      0.00000000	      0.39728680	      0.25355710	     -1.14178401	      0.73780131	      0.33723094	     -1.21314551	      0.65270248	      0.61649872	     -1.21314551	      0.45405908	      0.61649872	     -0.99906101	      0.36892052	      0.51705363	     -0.92769951	      0.22700968	      0.39275994	     -0.85633801	      2.83777986	      2.86828858	     -6.35026011	      0.00000000	      0.00000000	     28.25402187	      6.68351211	     18.25054030	     10.64030792	    -21.27919674	     67.07750118	     70.86796569	     88.79681239	     11.32783342	     -2.23256565	     -2.39030278	    -22.59762218	     50.94879853	     76.95828598	     83.94502016	     -2.99058740	      3.36352804
      0.10416667	     -2.73190185	     -3.73980764	     96.82922525	      0.08049271	      0.56356649	      0.79359042	      4.36428772	      2.05834281	    -10.68118973	     11.79037292	      0.20578083	     25.38460913	      3.98368597	      0.00000000	      2.15505512	     -0.47918923	     -9.34687898	      8.80408788	      0.15366032	     24.17871286	      4.16862304	      0.00000000	      0.39374288	      0.25500394	     -1.12030597	      0.73121991	      0.33915524	     -1.19032509	      0.64688018	      0.62001658	     -1.19032509	      0.45000874	      0.62001658	     -0.98026772	      0.36562964	      0.52000403	     -0.91024860	      0.22498468	      0.39500110	     -0.84022948	      2.81246604	      2.88465555	     -6.23080571	      0.00000000	      0.00000000	     28.24845942	      6.71393004	     18.33573710	     10.65949301	    -21.06541278	     67.28498468	     70.43516922	     88.71933363	     11.39087423	     -2.28957091	     -2.90046367	    -22.51472505	     50.39088968	     76.92994316	     83.06423527	     -3.33970930	      3.33325204
      0.12500000	     -2.72581256	     -3.76131003	     96.92150522	      0.08078646	      0.56331540	      0.79313239	      4.35601549	      2.15931180	    -10.18746719	     11.78363867	      0.20566329	     25.18553603	      2.92236694	      0.00000000	      2.22557591	     -0.51086395	     -9.05456584	      8.99995220	      0.15707880	     24.04259863	      3.48963211	      0.00000000	      0.39763551	      0.25296852	     -1.26166116	      0.73844890	      0.33644813	     -1.34051498	      0.65327538	      0.61506765	     -1.34051498	      0.45445762	      0.61506765	     -1.10395352	      0.36924433	      0.51585340	     -1.02509969	      0.22720893	      0.39184823	     -0.94624587	      2.84027067	      2.86163046	     -7.01698088	      0.00000000	      0.00000000	     28.23593398	      7.71371141	     19.77182443	     11.58991908	    -20.53036814	     68.79483226	     69.27457672	     88.61815213	     11.64214402	     -4.53472530	     -4.98984813	    -21.95917546	     46.92441347	     77.27763626	     84.92044025	     -2.76350089	      3.69533940
      0.14583333	     -2.74236241	     -3.72368418	     96.94120199	      0.08108540	      0.56322450	      0.79252945	      4.25731550	      2.25193328	     -9.65597308	     11.71001709	      0.20437835	     25.07142257	      2.01757261	      0.00000000	      2.18963272	     -0.55295707	     -9.12077757	      9.14360773	      0.15958606	     24.05415957	      3.48764081	      0.00000000	      0.39864194	      0.24565302	     -1.28223675	      0.74031794	      0.32671851	     -1.36237655	      0.65492884	      0.59728074	     -1.36237655	      0.45560787	      0.59728074	     -1.12195716	      0.37017890	      0.50093563	     -1.04181736	      0.22778400	      0.38051652	     -0.96167757	      2.84745948	      2.77887604	     -7.13141615	      0.00000000	      0.00000000	     28.22917983	      7.86288829	     19.85542028	     11.83212791	    -20.36407564	     69.30517816	     68.99087165	     88.62809520	     10.23834935	     -5.31583214	     -5.92281051	    -21.55087292	     44.97638967	     77.25851798	     85.42273998	     -1.34287789	      3.78245578
      0.16666667	     -2.70662595	     -3.61717911	     97.11721568	      0.08116902	      0.56329017	      0.79190300	      4.04962874	      2.29463121	    -10.25708053	     11.60571458	      0.20255793	     25.27035518	      2.63891553	      0.00000000	      2.11309028	     -0.59732043	     -8.24550980	      9.28179068	      0.16199781	     23.98563102	      2.60016211	      0.00000000	      0.39209157	      0.24337943	     -1.31059831	      0.72815326	      0.32369465	     -1.39251071	      0.64416724	      0.59175276	     -1.39251071	      0.44812146	      0.59175276	     -1.14677353	      0.36409623	      0.49629934	     -1.06486113	      0.22404112	      0.37699474	     -0.98294874	      2.80067089	      2.75315683	     -7.28915465	      0.00000000	      0.00000000	     28.22311045	      7.72180441	     19.49203930	     11.81943358	    -20.21287735	     69.23590711	     68.80519644	     88.69890954	      9.18198203	     -5.63084111	     -6.25624034	    -21.35419555	     44.30445711	     77.05252288	     85.27224435	     -1.43923449	      2.72398735
      0.18750000	     -2.70232327	     -3.44832834	     97.34409001	      0.08110891	      0.56344641	      0.79133849	      3.80064526	      2.34746026	    -10.49989117	     11.53875717	      0.20138930	     25.46606773	      2.66381531	      0.00000000	      2.00167028	     -0.66289076	     -7.85260190	      9.47801905	      0.16542264	     24.05033490	      2.52376738	      0.00000000	      0.37434295	      0.23916508	     -1.33881313	      0.69519230	      0.31808955	     -1.42248895	      0.61500804	      0.58150597	     -1.42248895	      0.42783656	      0.58150597	     -1.17146149	      0.34761487	      0.48770543	     -1.08778567	      0.21389956	      0.37046671	     -1.00410985	      2.67389427	      2.70548320	     -7.44607701	      0.00000000	      0.00000000	     28.22309712	      7.45362415	     18.99465586	     11.64224565	    -20.12108927	     68.81369356	     68.96497120	     88.79821839	      8.38241049	     -4.72358133	     -6.43228344	    -21.15974306	     44.00277489	     76.87517089	     83.75011005	     -1.64495133	      2.42541856
